<svg id="visual" viewBox="0 0 1920 1080" width="1920" height="1080" xmlns="http://www.w3.org/2000/svg" xmlns:xlink="http://www.w3.org/1999/xlink" version="1.1"><g stroke-width="1" stroke-linejoin="bevel"><path d="M864.3 503L889.3 372L678 346Z" fill="#5b7e5d" stroke="#5b7e5d"></path><path d="M678 346L600 502L864.3 503Z" fill="#5b7e5d" stroke="#5b7e5d"></path><path d="M889.3 372L876.3 202L678 346Z" fill="#92b97f" stroke="#92b97f"></path><path d="M1094.7 524L1074.7 366L889.3 372Z" fill="#618562" stroke="#618562"></path><path d="M889.3 372L1074.7 366L876.3 202Z" fill="#9ac083" stroke="#9ac083"></path><path d="M618 681L856.3 711L864.3 503Z" fill="#557759" stroke="#557759"></path><path d="M864.3 503L1094.7 524L889.3 372Z" fill="#8bb17b" stroke="#8bb17b"></path><path d="M600 502L618 681L864.3 503Z" fill="#6e946b" stroke="#6e946b"></path><path d="M876.3 202L608 141L678 346Z" fill="#9ac083" stroke="#9ac083"></path><path d="M446.7 342L458.7 510L600 502Z" fill="#618562" stroke="#618562"></path><path d="M446.7 342L600 502L678 346Z" fill="#688c66" stroke="#688c66"></path><path d="M600 502L458.7 510L618 681Z" fill="#5b7e5d" stroke="#5b7e5d"></path><path d="M1075.7 692L1094.7 524L864.3 503Z" fill="#8bb17b" stroke="#8bb17b"></path><path d="M608 141L446.7 342L678 346Z" fill="#92b97f" stroke="#92b97f"></path><path d="M1247 372L1096.7 176L1074.7 366Z" fill="#9ac083" stroke="#9ac083"></path><path d="M1074.7 366L1096.7 176L876.3 202Z" fill="#9ac083" stroke="#9ac083"></path><path d="M876.3 202L839.3 0L608 141Z" fill="#9ac083" stroke="#9ac083"></path><path d="M856.3 711L1075.7 692L864.3 503Z" fill="#759b6f" stroke="#759b6f"></path><path d="M608 141L433.7 192L446.7 342Z" fill="#618562" stroke="#618562"></path><path d="M242.3 706L421.7 737L458.7 510Z" fill="#5b7e5d" stroke="#5b7e5d"></path><path d="M1063.7 0L839.3 0L876.3 202Z" fill="#5b7e5d" stroke="#5b7e5d"></path><path d="M608 141L464.7 0L433.7 192Z" fill="#618562" stroke="#618562"></path><path d="M839.3 0L607 0L608 141Z" fill="#8bb17b" stroke="#8bb17b"></path><path d="M646 868L873.3 864L856.3 711Z" fill="#5b7e5d" stroke="#5b7e5d"></path><path d="M856.3 711L873.3 864L1075.7 692Z" fill="#8bb17b" stroke="#8bb17b"></path><path d="M421.7 737L646 868L618 681Z" fill="#5b7e5d" stroke="#5b7e5d"></path><path d="M618 681L646 868L856.3 711Z" fill="#8bb17b" stroke="#8bb17b"></path><path d="M1319 520L1247 372L1094.7 524Z" fill="#8bb17b" stroke="#8bb17b"></path><path d="M1094.7 524L1247 372L1074.7 366Z" fill="#7ca273" stroke="#7ca273"></path><path d="M458.7 510L421.7 737L618 681Z" fill="#759b6f" stroke="#759b6f"></path><path d="M249.3 395L458.7 510L446.7 342Z" fill="#7ca273" stroke="#7ca273"></path><path d="M1312 0L1063.7 0L1096.7 176Z" fill="#618562" stroke="#618562"></path><path d="M1096.7 176L1063.7 0L876.3 202Z" fill="#92b97f" stroke="#92b97f"></path><path d="M607 0L464.7 0L608 141Z" fill="#9ac083" stroke="#9ac083"></path><path d="M225.3 176L249.3 395L433.7 192Z" fill="#7ca273" stroke="#7ca273"></path><path d="M433.7 192L249.3 395L446.7 342Z" fill="#557759" stroke="#557759"></path><path d="M249.3 395L233.3 509L458.7 510Z" fill="#7ca273" stroke="#7ca273"></path><path d="M1315 708L1319 520L1094.7 524Z" fill="#618562" stroke="#618562"></path><path d="M1315 708L1094.7 524L1075.7 692Z" fill="#9ac083" stroke="#9ac083"></path><path d="M1032.7 1080L1066.7 889L873.3 864Z" fill="#92b97f" stroke="#92b97f"></path><path d="M873.3 864L1066.7 889L1075.7 692Z" fill="#7ca273" stroke="#7ca273"></path><path d="M1247 372L1278 184L1096.7 176Z" fill="#759b6f" stroke="#759b6f"></path><path d="M1473.3 367L1278 184L1247 372Z" fill="#759b6f" stroke="#759b6f"></path><path d="M421.7 737L421.7 890L646 868Z" fill="#6e946b" stroke="#6e946b"></path><path d="M646 868L868.3 1080L873.3 864Z" fill="#8bb17b" stroke="#8bb17b"></path><path d="M242.3 706L421.7 890L421.7 737Z" fill="#9ac083" stroke="#9ac083"></path><path d="M244.3 0L225.3 176L433.7 192Z" fill="#618562" stroke="#618562"></path><path d="M249.3 395L0 394L233.3 509Z" fill="#557759" stroke="#557759"></path><path d="M233.3 509L242.3 706L458.7 510Z" fill="#92b97f" stroke="#92b97f"></path><path d="M1066.7 889L1315 708L1075.7 692Z" fill="#92b97f" stroke="#92b97f"></path><path d="M648 1080L868.3 1080L646 868Z" fill="#9ac083" stroke="#9ac083"></path><path d="M1066.7 889L1305 911L1315 708Z" fill="#7ca273" stroke="#7ca273"></path><path d="M421.7 890L648 1080L646 868Z" fill="#557759" stroke="#557759"></path><path d="M464.7 0L244.3 0L433.7 192Z" fill="#5b7e5d" stroke="#5b7e5d"></path><path d="M1481.3 200L1312 0L1278 184Z" fill="#92b97f" stroke="#92b97f"></path><path d="M1278 184L1312 0L1096.7 176Z" fill="#92b97f" stroke="#92b97f"></path><path d="M1475.3 530L1473.3 367L1319 520Z" fill="#5b7e5d" stroke="#5b7e5d"></path><path d="M1319 520L1473.3 367L1247 372Z" fill="#83aa77" stroke="#83aa77"></path><path d="M1315 708L1475.3 530L1319 520Z" fill="#6e946b" stroke="#6e946b"></path><path d="M868.3 1080L1032.7 1080L873.3 864Z" fill="#557759" stroke="#557759"></path><path d="M1315 708L1532.3 706L1475.3 530Z" fill="#8bb17b" stroke="#8bb17b"></path><path d="M1248 1080L1305 911L1066.7 889Z" fill="#5b7e5d" stroke="#5b7e5d"></path><path d="M1473.3 367L1481.3 200L1278 184Z" fill="#7ca273" stroke="#7ca273"></path><path d="M1684.7 142L1481.3 200L1473.3 367Z" fill="#688c66" stroke="#688c66"></path><path d="M177.3 927L412.7 1080L421.7 890Z" fill="#6e946b" stroke="#6e946b"></path><path d="M421.7 890L412.7 1080L648 1080Z" fill="#8bb17b" stroke="#8bb17b"></path><path d="M0 184L0 394L225.3 176Z" fill="#618562" stroke="#618562"></path><path d="M225.3 176L0 394L249.3 395Z" fill="#759b6f" stroke="#759b6f"></path><path d="M233.3 509L0 555L242.3 706Z" fill="#83aa77" stroke="#83aa77"></path><path d="M242.3 706L177.3 927L421.7 890Z" fill="#557759" stroke="#557759"></path><path d="M0 697L177.3 927L242.3 706Z" fill="#759b6f" stroke="#759b6f"></path><path d="M0 394L0 555L233.3 509Z" fill="#92b97f" stroke="#92b97f"></path><path d="M1464.3 864L1532.3 706L1315 708Z" fill="#83aa77" stroke="#83aa77"></path><path d="M1745.7 397L1684.7 142L1473.3 367Z" fill="#759b6f" stroke="#759b6f"></path><path d="M0 0L0 184L225.3 176Z" fill="#688c66" stroke="#688c66"></path><path d="M1032.7 1080L1248 1080L1066.7 889Z" fill="#8bb17b" stroke="#8bb17b"></path><path d="M1305 911L1464.3 864L1315 708Z" fill="#688c66" stroke="#688c66"></path><path d="M1509.3 1080L1464.3 864L1305 911Z" fill="#618562" stroke="#618562"></path><path d="M0 555L0 697L242.3 706Z" fill="#618562" stroke="#618562"></path><path d="M1684.7 142L1503.3 0L1481.3 200Z" fill="#9ac083" stroke="#9ac083"></path><path d="M1481.3 200L1503.3 0L1312 0Z" fill="#6e946b" stroke="#6e946b"></path><path d="M244.3 0L0 0L225.3 176Z" fill="#92b97f" stroke="#92b97f"></path><path d="M0 1080L174.3 1080L177.3 927Z" fill="#9ac083" stroke="#9ac083"></path><path d="M177.3 927L174.3 1080L412.7 1080Z" fill="#557759" stroke="#557759"></path><path d="M0 697L0 898L177.3 927Z" fill="#618562" stroke="#618562"></path><path d="M1745.7 397L1473.3 367L1475.3 530Z" fill="#6e946b" stroke="#6e946b"></path><path d="M1738.7 691L1735.7 554L1532.3 706Z" fill="#8bb17b" stroke="#8bb17b"></path><path d="M1532.3 706L1735.7 554L1475.3 530Z" fill="#759b6f" stroke="#759b6f"></path><path d="M1735.7 554L1745.7 397L1475.3 530Z" fill="#688c66" stroke="#688c66"></path><path d="M1248 1080L1509.3 1080L1305 911Z" fill="#92b97f" stroke="#92b97f"></path><path d="M1708.7 921L1738.7 691L1532.3 706Z" fill="#92b97f" stroke="#92b97f"></path><path d="M1708.7 921L1532.3 706L1464.3 864Z" fill="#83aa77" stroke="#83aa77"></path><path d="M1920 534L1920 341L1745.7 397Z" fill="#688c66" stroke="#688c66"></path><path d="M0 898L0 1080L177.3 927Z" fill="#9ac083" stroke="#9ac083"></path><path d="M1920 208L1736.7 0L1684.7 142Z" fill="#83aa77" stroke="#83aa77"></path><path d="M1684.7 142L1736.7 0L1503.3 0Z" fill="#8bb17b" stroke="#8bb17b"></path><path d="M1509.3 1080L1708.7 921L1464.3 864Z" fill="#7ca273" stroke="#7ca273"></path><path d="M1920 534L1745.7 397L1735.7 554Z" fill="#759b6f" stroke="#759b6f"></path><path d="M1745.7 397L1920 208L1684.7 142Z" fill="#6e946b" stroke="#6e946b"></path><path d="M1920 534L1735.7 554L1920 697Z" fill="#83aa77" stroke="#83aa77"></path><path d="M1920 697L1735.7 554L1738.7 691Z" fill="#8bb17b" stroke="#8bb17b"></path><path d="M1509.3 1080L1718.7 1080L1708.7 921Z" fill="#557759" stroke="#557759"></path><path d="M1920 931L1920 697L1738.7 691Z" fill="#557759" stroke="#557759"></path><path d="M1920 341L1920 208L1745.7 397Z" fill="#759b6f" stroke="#759b6f"></path><path d="M1920 931L1738.7 691L1708.7 921Z" fill="#618562" stroke="#618562"></path><path d="M1920 208L1920 0L1736.7 0Z" fill="#83aa77" stroke="#83aa77"></path><path d="M1718.7 1080L1920 931L1708.7 921Z" fill="#7ca273" stroke="#7ca273"></path><path d="M1718.7 1080L1920 1080L1920 931Z" fill="#83aa77" stroke="#83aa77"></path></g></svg>